grf
version=1
nRows=8
nColumns=28
inDegrees=no
endheader
time	ground_force_1_vx	ground_force_1_vy	ground_force_1_vz	ground_force_1_px	ground_force_1_py	ground_force_1_pz	ground_moment_1_mx	ground_moment_1_my	ground_moment_1_mz	ground_force_2_vx	ground_force_2_vy	ground_force_2_vz	ground_force_2_px	ground_force_2_py	ground_force_2_pz	ground_moment_2_mx	ground_moment_2_my	ground_moment_2_mz	ground_force_3_vx	ground_force_3_vy	ground_force_3_vz	ground_force_3_px	ground_force_3_py	ground_force_3_pz	ground_moment_3_mx	ground_moment_3_my	ground_moment_3_mz
      0.00000000	      0.32252850	      0.64575770	      1.26778322	    274.88549318	  -1174.89738575	      1.89148278	      0.03468657	      0.12542710	     68.72729872	      1.06423684	     -2.80577978	      1.47268209	     -5.67160628	  -1589.18267026	      0.25157293	      0.06827569	      0.88300524	  -1058.08170876	      1.38907901	     -0.84906243	      5.09179208	    441.48793801	   -207.60435692	      0.22170138	     -0.06592511	      0.48428102	    235.81587132
      0.01000000	      0.37148877	      0.45505456	      1.37827289	    325.50581737	  -1161.79831003	      1.84202900	      0.02766477	      0.10003616	     54.81443117	      0.84474717	     -2.59741899	      2.40703716	    233.05628572	  -1690.60447299	      0.18233757	      0.02996379	      0.38751983	   -464.35471614	      1.16839240	     -0.89566930	      4.81511996	    436.80468493	   -175.38854130	      0.15423242	     -0.05635696	      0.41399414	    201.59036606
      0.02000000	      0.42236935	      0.29135677	      1.84534316	    317.49564676	  -1174.41189130	      1.86909147	      0.00312276	      0.01129192	      6.18736590	      0.99282665	     -2.74032959	      2.41577266	    238.95558718	  -1588.31588644	      0.26808155	      0.02283616	      0.29533860	   -353.89639503	      1.10055577	     -0.69794120	      5.24879392	    427.30843651	   -201.05738723	      0.20429221	     -0.03471803	      0.25503612	    124.18732508
      0.03000000	      0.33135658	      0.44898198	      1.89673682	    303.13245133	  -1167.69542889	      1.86408303	      0.00630528	      0.02279996	     12.49315210	      0.96089887	     -2.78203714	      2.28907504	    203.94874834	  -1610.15889978	      0.24759389	      0.03181032	      0.41140086	   -492.97071648	      1.33217292	     -0.88828847	      5.42084442	    435.92330123	   -206.04582122	      0.21694505	     -0.05045471	      0.37063664	    180.47785826
      0.04000000	      0.12113527	      0.45005238	      1.72639305	    363.13193283	  -1173.56991065	      1.84452228	     -0.01292374	     -0.04673240	    -25.60684020	      1.06893826	     -2.76217898	      2.05095378	    115.34908539	  -1625.00604271	      0.22948631	      0.05177005	      0.66953880	   -802.29055383	      1.19927238	     -0.81168098	      5.78896604	    479.27144135	   -226.63354848	      0.27134332	     -0.07332205	      0.53861843	    262.27493790
      0.05000000	      0.28268255	      0.40365563	      1.34738840	    279.74769295	  -1179.65598019	      1.89771326	      0.00982663	      0.03553324	     19.47029958	      1.21971175	     -2.72752431	      1.91233694	     90.63055066	  -1476.53345243	      0.35179671	      0.04070200	      0.52639638	   -630.76679149	      1.35096574	     -1.12557786	      5.56394721	    482.10469611	   -215.28164509	      0.24882266	     -0.07265355	      0.53370768	    259.88369798
      0.06000000	      0.18380886	      0.18458009	      1.99718552	    349.39395953	  -1117.96989453	      1.74998597	      0.00200865	      0.00726332	      3.97990630	      1.08903105	     -2.62731278	      2.56695592	    169.63299656	  -1665.04487101	      0.19957536	      0.04415776	      0.57108951	   -684.32137837	      1.22544708	     -0.79063642	      5.66206146	    456.73354167	   -252.04380732	      0.31722612	     -0.02367175	      0.17389097	     84.67449333
      0.07000000	      0.52332709	      0.51070343	      1.76347579	    339.51772529	  -1163.51419417	      1.83808869	      0.01608705	      0.05817098	     31.87456387	      1.13036910	     -2.50628289	      1.84146486	     99.94928035	  -1556.98569370	      0.28525789	      0.04027015	      0.52081135	   -624.07439573	    -22.68345701	     58.13153892	    -89.75116096	    544.23770402	   -197.19251512	      0.22904411	      0.24097306	     -1.77017051	   -861.96708960
